{
    "asset" : {
        "generator" : "Khronos glTF Blender I/O v0.9.36",
        "version" : "2.0"
    },
    "scene" : 0,
    "scenes" : [
        {
            "name" : "Scene",
            "nodes" : [
                0
            ]
        }
    ],
    "nodes" : [
        {
            "mesh" : 0,
            "name" : "Black Stone",
            "translation" : [
                -0.5,
                0,
                0.5
            ]
        }
    ],
    "materials" : [
        {
            "doubleSided" : true,
            "name" : "stoneLight.001",
            "pbrMetallicRoughness" : {
                "baseColorFactor" : [
                    1,
                    1,
                    1,
                    1
                ],
                "metallicFactor" : 1,
                "roughnessFactor" : 0.5
            }
        },
        {
            "doubleSided" : true,
            "name" : "stoneDark.001",
            "pbrMetallicRoughness" : {
                "baseColorFactor" : [
                    0.0368894562125206,
                    0.0368894524872303,
                    0.0368894524872303,
                    1
                ],
                "metallicFactor" : 1,
                "roughnessFactor" : 0.5
            }
        }
    ],
    "meshes" : [
        {
            "name" : "Cylinder",
            "primitives" : [
                {
                    "attributes" : {
                        "POSITION" : 0,
                        "NORMAL" : 1,
                        "TEXCOORD_0" : 2
                    },
                    "indices" : 3,
                    "material" : 0
                },
                {
                    "attributes" : {
                        "POSITION" : 4,
                        "NORMAL" : 5,
                        "TEXCOORD_0" : 6
                    },
                    "indices" : 7,
                    "material" : 1
                }
            ]
        }
    ],
    "accessors" : [
        {
            "bufferView" : 0,
            "componentType" : 5126,
            "count" : 1240,
            "max" : [
                0.4000000059604645,
                5.24536716284274e-08,
                0.40000006556510925
            ],
            "min" : [
                -0.4000000059604645,
                -0.07500005513429642,
                -0.40000006556510925
            ],
            "type" : "VEC3"
        },
        {
            "bufferView" : 1,
            "componentType" : 5126,
            "count" : 1240,
            "type" : "VEC3"
        },
        {
            "bufferView" : 2,
            "componentType" : 5126,
            "count" : 1240,
            "type" : "VEC2"
        },
        {
            "bufferView" : 3,
            "componentType" : 5123,
            "count" : 1242,
            "type" : "SCALAR"
        },
        {
            "bufferView" : 4,
            "componentType" : 5126,
            "count" : 1240,
            "max" : [
                0.4000000059604645,
                0.07500005513429642,
                0.40000006556510925
            ],
            "min" : [
                -0.4000000059604645,
                -5.24536716284274e-08,
                -0.40000006556510925
            ],
            "type" : "VEC3"
        },
        {
            "bufferView" : 5,
            "componentType" : 5126,
            "count" : 1240,
            "type" : "VEC3"
        },
        {
            "bufferView" : 6,
            "componentType" : 5126,
            "count" : 1240,
            "type" : "VEC2"
        },
        {
            "bufferView" : 7,
            "componentType" : 5123,
            "count" : 1242,
            "type" : "SCALAR"
        }
    ],
    "bufferViews" : [
        {
            "buffer" : 0,
            "byteLength" : 14880,
            "byteOffset" : 0
        },
        {
            "buffer" : 0,
            "byteLength" : 14880,
            "byteOffset" : 14880
        },
        {
            "buffer" : 0,
            "byteLength" : 9920,
            "byteOffset" : 29760
        },
        {
            "buffer" : 0,
            "byteLength" : 2484,
            "byteOffset" : 39680
        },
        {
            "buffer" : 0,
            "byteLength" : 14880,
            "byteOffset" : 42164
        },
        {
            "buffer" : 0,
            "byteLength" : 14880,
            "byteOffset" : 57044
        },
        {
            "buffer" : 0,
            "byteLength" : 9920,
            "byteOffset" : 71924
        },
        {
            "buffer" : 0,
            "byteLength" : 2484,
            "byteOffset" : 81844
        }
    ],
    "buffers" : [
        {
            "byteLength" : 84328,
            "uri" : "data:application/octet-stream;base64,"
        }
    ]
}
